<?xml version="1.0" encoding="UTF-8"?>
<!DOCTYPE svg PUBLIC "-//W3C//DTD SVG 1.1//EN" "http://www.w3.org/Graphics/SVG/1.1/DTD/svg11.dtd">
<svg xmlns="http://www.w3.org/2000/svg" version="1.1" width="512px" height="512px" style="shape-rendering:geometricPrecision; text-rendering:geometricPrecision; image-rendering:optimizeQuality; fill-rule:evenodd; clip-rule:evenodd" xmlns:xlink="http://www.w3.org/1999/xlink">
<g><path style="opacity:1" fill="#000000" d="M 206.5,65.5 C 221.656,67.1429 225.822,74.8096 219,88.5C 214.611,93.8893 210.611,99.556 207,105.5C 205.612,138.674 210.779,170.841 222.5,202C 234.684,206.871 245.85,213.371 256,221.5C 254.047,205.357 250.047,189.691 244,174.5C 239.936,170.214 235.103,167.048 229.5,165C 220.663,155.881 221.996,148.881 233.5,144C 241.333,143.664 247.833,146.497 253,152.5C 258.69,159.876 263.356,167.876 267,176.5C 279.941,195.688 294.774,213.354 311.5,229.5C 313.413,228.627 315.247,227.627 317,226.5C 318.282,208.708 321.782,191.375 327.5,174.5C 329.656,172.062 331.989,171.895 334.5,174C 336.291,176.414 337.957,178.914 339.5,181.5C 341.975,177.858 344.642,174.358 347.5,171C 348.833,170.333 350.167,170.333 351.5,171C 358.28,180.393 363.614,190.56 367.5,201.5C 382.62,205.971 395.787,213.638 407,224.5C 411.098,218.401 416.431,213.734 423,210.5C 425.065,211.628 425.732,213.294 425,215.5C 419.379,218.787 414.712,223.121 411,228.5C 410.333,229.5 410.333,230.5 411,231.5C 417.506,226.107 424.84,223.774 433,224.5C 433.684,225.784 433.517,226.951 432.5,228C 425.259,229.704 418.759,232.871 413,237.5C 412.147,254.058 407.647,269.558 399.5,284C 425.521,281.911 450.521,275.578 474.5,265C 478.167,264.333 481.833,264.333 485.5,265C 492.445,268.272 496.778,273.606 498.5,281C 495.744,291.744 488.744,297.411 477.5,298C 471.03,298.849 464.697,298.349 458.5,296.5C 455.774,296.682 453.107,297.182 450.5,298C 423.727,309.925 396.06,319.258 367.5,326C 341.006,344.28 311.672,355.28 279.5,359C 254.373,361.523 229.373,360.689 204.5,356.5C 199.566,373.596 198.399,390.929 201,408.5C 201.883,411.102 203.383,413.269 205.5,415C 211.5,417.333 217.5,419.667 223.5,422C 228.095,429.168 227.095,435.501 220.5,441C 196.815,448.882 177.982,442.382 164,421.5C 156.002,403.506 150.002,384.839 146,365.5C 142.575,348.614 139.908,331.614 138,314.5C 117.295,288.575 113.795,260.408 127.5,230C 118.157,230.555 108.824,231.555 99.5,233C 75.5236,235.892 53.8569,230.226 34.5,216C 13.0582,195.73 7.2249,171.563 17,143.5C 20.8318,136.501 26.6651,133.667 34.5,135C 37.7651,138.274 39.4318,142.274 39.5,147C 30.4245,179.19 41.7579,200.19 73.5,210C 95.8686,213.155 117.869,211.489 139.5,205C 145.346,171.453 154.846,138.953 168,107.5C 174.171,93.9908 182.671,82.1574 193.5,72C 197.657,69.2548 201.99,67.0881 206.5,65.5 Z M 386.5,224.5 C 389.127,224.293 390.793,225.46 391.5,228C 386.212,238.651 378.045,241.818 367,237.5C 366.28,235.888 366.446,234.388 367.5,233C 375.942,234.439 382.276,231.606 386.5,224.5 Z M 373.5,255.5 C 376.131,256.425 376.798,258.091 375.5,260.5C 369.708,262.153 364.208,264.486 359,267.5C 357.322,266.534 356.655,265.201 357,263.5C 362.097,259.868 367.597,257.201 373.5,255.5 Z M 375.5,264.5 C 380.463,264.102 381.463,265.769 378.5,269.5C 373.367,271.567 368.7,274.4 364.5,278C 361.333,278.833 360.167,277.667 361,274.5C 365.291,270.28 370.124,266.947 375.5,264.5 Z"/></g>
</svg>
